<svg id="Vrstva_1" data-name="Vrstva 1" xmlns="http://www.w3.org/2000/svg" xmlns:xlink="http://www.w3.org/1999/xlink" viewBox="0 0 226.22 894.05"><defs><style>.cls-1{fill:none;}.cls-2,.cls-4{fill:#1f1f1f;stroke-miterlimit:10;stroke-width:4px;}.cls-2{stroke:#009fe3;}.cls-3{clip-path:url(#clip-path);}.cls-4{stroke:#e94e1b;}</style><clipPath id="clip-path" transform="translate(-172.8 -4.83)"><polygon class="cls-1" points="286.33 14.18 238.05 316.88 344.49 285.81 283.87 704.35 317.92 716.2 300.61 821.43 281.09 918.99 369.75 873.19 603.13 627.14 579.53 247.09 539.14 -57.07 286.33 14.18"/></clipPath></defs><polygon class="cls-2" points="45.53 42.02 188.25 2.84 120.43 271.3 223.57 226.21 137.02 698.77 191.08 667.31 114.67 881.45 108.28 740.05 63.8 760.41 104.21 329.25 2.46 381.22 45.53 42.02"/><g class="cls-3"><path class="cls-4" d="M218.34,46.85,361.06,7.66,293.23,276.12l102.48-45.75L310.49,702.71,364.33,671,287.47,886.28,292,733.22l-47.16,18.25L277,334.07,175.27,386Z" transform="translate(-172.8 -4.83)"/></g></svg>